<svg xmlns="http://www.w3.org/2000/svg" width="256" height="256" viewBox="0 0 256 256" version="1.1"><path d="M 138.640 3.011 C 134.682 6.486, 133.995 8.542, 133.131 19.500 L 132.500 27.500 125.847 28.158 C 106.636 30.058, 82.765 39.593, 66.085 52.028 C 52.295 62.309, 37.942 78.863, 29.579 94.131 C 22.763 106.576, 16.074 128.553, 16.022 138.677 C 16.004 142.052, 16.526 143.268, 18.734 145.006 C 22.806 148.208, 26.620 147.090, 31.482 141.268 C 48.414 120.995, 71.368 107.137, 95.924 102.365 C 104.042 100.787, 121.885 100.298, 128.788 101.464 L 133 102.176 133 108.039 C 133 124.692, 138.861 132.556, 149.757 130.521 C 152.954 129.924, 157.115 126.226, 178.276 105.180 C 204.944 78.655, 208.005 74.626, 207.994 66.054 C 207.982 55.839, 207.630 55.352, 180.646 28.170 C 166.816 14.238, 154.285 2.200, 152.800 1.420 C 148.136 -1.032, 142.527 -0.402, 138.640 3.011 M 226.132 112.829 C 213.332 126.320, 209.919 129.646, 205 133.418 C 192.440 143.048, 175.565 150.638, 160.076 153.623 C 151.909 155.196, 134.441 155.651, 126.750 154.490 L 122 153.773 122 144.337 C 122 133.570, 120.711 130.014, 115.701 126.960 C 112.113 124.772, 108.492 124.486, 104.315 126.062 C 102.767 126.646, 90.538 138.008, 77.139 151.312 C 50.943 177.322, 48.024 181.200, 48.015 190 C 48.006 200.180, 48.348 200.653, 75.341 227.824 C 89.179 241.752, 101.715 253.789, 103.200 254.574 C 107.186 256.679, 113.255 256.374, 116.385 253.912 C 120.785 250.451, 122 246.914, 122 237.569 C 122 227.923, 121.279 228.644, 132 227.582 C 149.642 225.834, 173.737 216.017, 189.915 203.986 C 204.594 193.069, 221.825 172.200, 228.709 157 C 234.598 143.999, 240 124.859, 240 116.997 C 240 113.121, 236.098 109, 232.428 109 C 230.640 109, 228.571 110.258, 226.132 112.829" stroke="none" fill="#8404fc" fill-rule="evenodd"/></svg>