<svg xmlns="http://www.w3.org/2000/svg" width="256" height="256" viewBox="0 0 256 256" version="1.1"><path d="M 187.530 2.944 C 184.711 5.910, 184.532 6.615, 184.011 16.793 C 183.557 25.653, 183.058 28.170, 181.144 31.268 C 178.671 35.268, 171.681 40, 168.244 40 C 162.763 40, 163 38.368, 163 76.107 L 163 111 198.343 111 C 233.415 111, 233.719 110.982, 238.093 108.672 C 245.218 104.909, 247.353 100.298, 252.059 78.500 C 256.748 56.776, 256.912 50.673, 252.917 46.397 C 248.358 41.517, 246.176 41, 230.146 41 L 215.192 41 214.846 27.250 C 214.449 11.478, 213.415 8.644, 206.207 3.578 C 203.048 1.358, 200.587 0.528, 196.255 0.224 C 190.871 -0.154, 190.309 0.021, 187.530 2.944 M 120.861 32.912 L 118.500 34.823 118.500 76 L 118.500 117.177 120.861 119.088 C 122.843 120.693, 124.870 121, 133.500 121 C 142.130 121, 144.157 120.693, 146.139 119.088 L 148.500 117.177 148.500 76 L 148.500 34.823 146.139 32.912 C 144.157 31.307, 142.130 31, 133.500 31 C 124.870 31, 122.843 31.307, 120.861 32.912 M 11.436 70.413 C 7.381 72.178, 1.171 79.542, 0.472 83.413 C 0.166 85.111, 0.047 115.821, 0.207 151.658 L 0.500 216.815 3.558 220.658 C 7.600 225.737, 14.115 229, 20.212 229 L 25 229 25 240.500 C 25 253.699, 26.106 256, 32.448 256 C 36.115 256, 36.275 255.882, 57.500 237.621 L 67.500 229.017 136.038 229.009 L 204.576 229 208.980 226.750 C 211.402 225.513, 214.760 222.771, 216.442 220.658 L 219.500 216.816 219.779 171.408 L 220.059 126 189.911 126 L 159.764 126 156.205 129.125 C 150.045 134.533, 146.757 135.453, 133.500 135.478 C 122.427 135.498, 121.075 135.290, 116 132.777 C 110.210 129.910, 106.651 125.755, 104.973 119.905 C 104.438 118.039, 104 105.823, 104 92.757 L 104 69 59.250 69.039 C 24.209 69.070, 13.835 69.368, 11.436 70.413 M 35 99 C 32.122 101.878, 32.411 106.392, 35.635 108.927 C 38.136 110.895, 39.501 111, 62.500 111 C 85.499 111, 86.864 110.895, 89.365 108.927 C 92.589 106.392, 92.878 101.878, 90 99 C 88.105 97.105, 86.667 97, 62.500 97 C 38.333 97, 36.895 97.105, 35 99 M 35 129 C 32.122 131.878, 32.411 136.392, 35.635 138.927 C 38.136 140.895, 39.501 141, 62.500 141 C 85.499 141, 86.864 140.895, 89.365 138.927 C 92.589 136.392, 92.878 131.878, 90 129 C 88.105 127.105, 86.667 127, 62.500 127 C 38.333 127, 36.895 127.105, 35 129 M 35 159 C 32.122 161.878, 32.411 166.392, 35.635 168.927 C 38.245 170.980, 38.947 171, 110 171 C 181.053 171, 181.755 170.980, 184.365 168.927 C 187.589 166.392, 187.878 161.878, 185 159 C 183.037 157.037, 181.667 157, 110 157 C 38.333 157, 36.963 157.037, 35 159 M 35 189 C 32.122 191.878, 32.411 196.392, 35.635 198.927 C 38.245 200.980, 38.947 201, 110 201 C 181.053 201, 181.755 200.980, 184.365 198.927 C 187.589 196.392, 187.878 191.878, 185 189 C 183.037 187.037, 181.667 187, 110 187 C 38.333 187, 36.963 187.037, 35 189" stroke="none" fill="#8404fc" fill-rule="evenodd"/></svg>