<svg id="svg" version="1.1" xmlns="http://www.w3.org/2000/svg" xmlns:xlink="http://www.w3.org/1999/xlink" width="400" height="400" viewBox="0, 0, 400,400"><g id="svgg"><path id="path0" d="M174.849 1.247 C 108.352 9.779,50.195 51.477,20.281 112.071 C -31.640 217.240,19.688 349.145,129.568 392.921 C 137.080 395.914,150.094 400.000,152.115 400.000 C 152.925 400.000,153.125 393.418,153.125 366.728 L 153.125 333.456 150.162 333.957 C 129.836 337.391,113.190 329.476,99.886 310.052 C 92.745 299.626,88.208 295.943,80.387 294.224 C 78.422 293.793,78.333 293.526,77.826 286.537 C 77.538 282.555,77.083 277.573,76.816 275.466 L 76.329 271.636 82.501 272.064 C 96.130 273.009,107.093 280.835,118.806 297.982 C 126.303 308.956,132.455 312.312,143.584 311.497 C 150.974 310.956,154.687 309.725,154.688 307.818 C 154.688 303.811,158.281 295.442,162.970 288.525 C 165.756 284.417,167.882 280.903,167.696 280.717 C 167.510 280.531,163.892 279.676,159.656 278.816 C 128.790 272.555,106.301 257.925,93.143 235.547 C 76.310 206.919,78.499 168.507,98.622 139.391 L 102.445 133.860 100.735 127.281 C 97.692 115.572,98.353 101.447,102.574 88.029 L 104.250 82.699 108.961 83.200 C 120.055 84.379,129.052 87.954,146.712 98.200 L 155.534 103.319 165.072 101.259 C 192.885 95.252,208.244 95.570,242.380 102.861 C 244.086 103.225,246.501 102.181,254.170 97.760 C 271.488 87.778,280.223 84.341,291.051 83.248 L 295.773 82.771 297.451 88.065 C 301.485 100.791,302.193 115.988,299.276 127.228 L 297.582 133.752 303.048 142.462 C 339.687 200.845,310.339 264.506,240.179 278.839 C 230.777 280.760,231.104 280.148,235.931 286.784 C 246.490 301.301,246.296 300.078,246.682 354.492 C 246.930 389.398,247.225 400.000,247.950 400.000 C 249.914 400.000,263.029 395.870,270.432 392.921 C 380.299 349.150,431.634 217.227,379.719 112.071 C 341.788 35.239,258.992 -9.549,174.849 1.247 " stroke="none" fill="#000000" fill-rule="evenodd"></path></g></svg>