<svg xmlns="http://www.w3.org/2000/svg" width="256" height="256" viewBox="0 0 256 256" version="1.1"><path d="M 115 4.682 C 61.750 10.191, 17.904 50.275, 6.325 104.034 C 3.953 115.048, 3.932 141.125, 6.288 151.500 C 9.186 164.266, 10.186 166.464, 13.256 166.817 C 17.175 167.268, 17.444 165.546, 15.125 154.837 C 14.014 149.702, 12.793 142.463, 12.414 138.750 L 11.724 132 37.862 132 L 64 132 64 138.449 C 64 151.352, 68.060 174.451, 73.503 192.514 C 74.043 194.305, 73.298 194.734, 66.805 196.376 C 62.787 197.392, 55.465 199.722, 50.533 201.554 C 44.323 203.861, 41.195 204.577, 40.359 203.883 C 38.653 202.467, 31.734 193.195, 29.132 188.838 L 26.945 185.176 32.556 186.641 C 38.875 188.291, 41 187.479, 41 183.416 C 41 181.465, 40.146 180.824, 35.837 179.544 C 27.661 177.116, 19.449 175.614, 17.803 176.245 C 16.853 176.610, 15.294 180.804, 13.611 187.519 C 10.724 199.039, 11.006 201, 15.545 201 C 17.331 201, 18.103 200.162, 18.998 197.250 C 19.633 195.188, 20.355 192.868, 20.604 192.095 C 20.872 191.262, 23.329 194.014, 26.650 198.868 C 54.837 240.067, 106.846 259.928, 156.500 248.455 C 177.971 243.493, 199.296 231.520, 215.311 215.432 C 233.197 197.466, 244.795 175.809, 249.670 151.275 C 252.965 134.690, 251.650 108.008, 246.822 93.500 C 245.664 90.020, 245.102 89.500, 242.496 89.500 C 239.722 89.500, 239.507 89.759, 239.590 93 C 239.640 94.925, 240.409 99.704, 241.299 103.619 C 242.189 107.535, 243.223 113.722, 243.597 117.369 L 244.276 124 218.290 124 L 192.305 124 191.657 112.657 C 190.911 99.594, 188.950 87.329, 185.555 74.500 C 184.245 69.550, 183.022 64.902, 182.837 64.171 C 182.610 63.275, 184.793 62.249, 189.540 61.020 C 193.412 60.017, 200.837 57.584, 206.040 55.613 L 215.500 52.029 217.814 54.764 C 219.914 57.247, 226.665 66.811, 228.330 69.660 C 228.812 70.486, 227.491 70.419, 223.754 69.429 C 216.811 67.589, 214.796 68.260, 215.193 72.278 C 215.492 75.303, 215.740 75.447, 224.500 77.691 C 229.450 78.959, 234.850 79.885, 236.500 79.748 C 239.438 79.505, 239.558 79.277, 242.302 68.666 C 245.370 56.806, 245.020 54.620, 240.143 55.199 C 238.181 55.433, 237.425 56.283, 236.765 59 C 236.297 60.925, 235.706 63.105, 235.452 63.844 C 235.178 64.644, 233.475 62.945, 231.245 59.646 C 210.650 29.170, 178.855 9.555, 142.702 5.022 C 134.947 4.050, 122.581 3.898, 115 4.682 M 98 15.944 C 80.258 20.922, 63.069 30.267, 50.278 41.886 L 46.056 45.722 49.901 47.455 C 52.015 48.409, 58.823 50.663, 65.030 52.466 L 76.315 55.743 80.125 47.865 C 86.665 34.340, 95.850 22.414, 104.500 16.214 C 108.148 13.599, 106.588 13.534, 98 15.944 M 151.500 16.214 C 160.312 22.530, 171.038 36.702, 176.507 49.256 L 179.335 55.746 182.917 54.797 C 190.480 52.793, 202.657 48.903, 206.174 47.368 L 209.848 45.765 204.174 40.745 C 191.088 29.167, 173.510 19.908, 156.356 15.558 C 148.423 13.547, 147.881 13.620, 151.500 16.214 M 118.330 17.852 C 111.255 20.297, 102.993 26.777, 97.207 34.420 C 92.016 41.277, 84.283 55.616, 85.252 56.586 C 86.055 57.389, 103.425 59.655, 114.750 60.435 L 124 61.072 124 38.536 C 124 26.141, 123.888 16.015, 123.750 16.033 C 123.612 16.051, 121.174 16.869, 118.330 17.852 M 132 38.584 L 132 61.072 141.250 60.435 C 152.032 59.693, 169.931 57.402, 170.663 56.671 C 172.071 55.262, 161.664 37.243, 155.171 29.847 C 150.819 24.891, 142.275 19.188, 136.676 17.503 L 132 16.096 132 38.584 M 35.462 58.158 C 22.155 76.236, 14.230 96.343, 12.384 116.719 L 11.724 124 37.862 124 L 64 124 64 117.551 C 64 104.841, 67.171 86.324, 73.142 64.171 C 73.384 63.271, 71.241 62.253, 66.500 61.016 C 60.661 59.493, 48.852 55.434, 41.810 52.529 C 40.524 51.999, 39.004 53.347, 35.462 58.158 M 81 65.485 C 81 65.752, 79.888 69.808, 78.528 74.499 C 75.158 86.128, 72.962 99.315, 72.158 112.750 L 71.485 124 97.742 124 L 124 124 124 96.617 L 124 69.233 121.750 68.630 C 120.513 68.299, 116.575 68.012, 113 67.994 C 109.425 67.976, 101.550 67.298, 95.500 66.489 C 83.700 64.910, 81 64.723, 81 65.485 M 159.500 66.566 C 154.550 67.271, 147.350 67.888, 143.500 67.937 C 139.650 67.987, 135.488 68.299, 134.250 68.630 L 132 69.233 132 96.617 L 132 124 158 124 L 184 124 183.982 116.750 C 183.951 104.786, 181.037 86.660, 176.827 72.250 C 174.385 63.894, 175.563 64.280, 159.500 66.566 M 72.165 143.250 C 72.986 156.802, 74.299 165.311, 77.565 178.230 C 80.896 191.406, 81.810 193.264, 84.615 192.560 C 88.823 191.504, 112.477 189, 118.244 189 L 124 189 124 160.500 L 124 132 97.742 132 L 71.485 132 72.165 143.250 M 132 160.500 L 132 189 137.756 189 C 143.603 189, 167.200 191.510, 171.501 192.590 C 173.692 193.139, 174.032 192.624, 176.376 185.202 C 179.984 173.782, 182.922 157.343, 183.786 143.750 L 184.532 132 158.266 132 L 132 132 132 160.500 M 191.685 143.250 C 190.966 156.278, 188.150 172.707, 184.467 185.360 C 183.048 190.234, 182.025 194.317, 182.194 194.435 C 182.362 194.552, 186.325 195.669, 191 196.916 C 195.675 198.163, 202.854 200.479, 206.953 202.063 C 215.732 205.456, 215.181 205.716, 222.919 194.522 C 234.571 177.667, 241.401 159.186, 243.530 138.750 L 244.233 132 218.269 132 L 192.306 132 191.685 143.250 M 104 197.654 C 102.625 197.863, 97.800 198.522, 93.278 199.117 L 85.056 200.199 86.581 203.849 C 89.456 210.732, 97.379 222.379, 102.968 227.939 C 108.359 233.301, 114.708 237.195, 120.998 239 L 124 239.860 124 218.430 L 124 197 115.250 197.136 C 110.438 197.211, 105.375 197.444, 104 197.654 M 132 218.283 L 132 239.860 134.759 239.069 C 141.062 237.261, 148.780 232.386, 154.004 226.914 C 159.225 221.444, 167.673 208.620, 169.881 202.813 L 170.866 200.223 163.183 199.043 C 158.957 198.394, 150.213 197.602, 143.750 197.284 L 132 196.706 132 218.283 M 63.707 205.535 C 57.221 207.427, 50.985 209.473, 49.850 210.080 C 47.841 211.156, 47.874 211.275, 51.121 214.625 C 61.540 225.374, 86.466 238.022, 104 241.455 L 107.500 242.140 104 239.385 C 95.080 232.362, 86.828 221.607, 80.113 208.250 C 78.385 204.813, 76.640 202.021, 76.236 202.047 C 75.831 202.073, 70.193 203.642, 63.707 205.535 M 175.586 208.750 C 168.826 222.020, 162.172 230.649, 152.253 239.015 L 148.500 242.179 152 241.474 C 169.632 237.923, 190.547 227.478, 203.488 215.762 C 208.268 211.434, 208.354 211.260, 206.260 210.139 C 204.482 209.187, 180.791 202, 179.433 202 C 179.208 202, 177.478 205.037, 175.586 208.750" stroke="none" fill="#044cfc" fill-rule="evenodd"/></svg>