<svg xmlns="http://www.w3.org/2000/svg" width="256" height="256" viewBox="0 0 256 256" version="1.1"><path d="M 39.265 1.542 C 36.385 2.317, 31.660 4.151, 28.765 5.618 C 21.676 9.207, 9.936 20.767, 6.133 27.902 C -0.149 39.689, 0 37.251, -0 128 C -0 217.761, -0.103 215.938, 5.633 227.267 C 9.209 234.328, 20.779 246.071, 27.902 249.867 C 38.872 255.714, 41.515 256, 84.562 256 C 123.508 256, 123.721 255.989, 127.010 253.750 C 132.688 249.885, 134.500 246.560, 134.500 240 C 134.500 233.677, 132.864 230.483, 127.618 226.562 C 124.974 224.586, 123.269 224.479, 86.679 224 L 48.500 223.500 43.353 220.647 C 39.482 218.501, 37.499 216.518, 35.353 212.647 L 32.500 207.500 32.500 128 L 32.500 48.500 35.353 43.353 C 37.499 39.482, 39.482 37.499, 43.353 35.353 L 48.500 32.500 86.679 32 C 123.269 31.521, 124.974 31.414, 127.618 29.438 C 132.864 25.517, 134.500 22.323, 134.500 16 C 134.500 9.440, 132.688 6.115, 127.010 2.250 C 123.715 0.007, 123.577 0, 84.102 0.066 C 53.333 0.117, 43.332 0.446, 39.265 1.542 M 160.500 40.412 C 152.652 43.900, 148.488 54.844, 152.356 61.816 C 153.063 63.090, 164.098 74.894, 176.879 88.046 L 200.117 111.960 129.573 112.230 L 59.029 112.500 54.764 116.765 C 50.561 120.968, 50.500 121.129, 50.500 128 C 50.500 134.871, 50.561 135.032, 54.764 139.235 L 59.029 143.500 129.573 143.770 L 200.117 144.040 176.862 167.971 C 164.071 181.134, 152.970 193.119, 152.191 194.605 C 150.323 198.170, 151.122 206.347, 153.672 209.763 C 158.481 216.203, 167.525 218.890, 173.584 215.677 C 175.188 214.826, 194.275 196.324, 216 174.561 L 255.500 134.991 255.500 128 L 255.500 121.009 216 81.439 C 194.275 59.676, 175.285 41.224, 173.800 40.435 C 170.453 38.657, 164.472 38.646, 160.500 40.412" stroke="none" fill="#ec0404" fill-rule="evenodd"/></svg>