<svg xmlns="http://www.w3.org/2000/svg" width="256" height="256" viewBox="0 0 256 256" version="1.1"><path d="M 192.288 8.250 C 188.998 11.841, 172 39.423, 172 41.170 C 172 42.042, 172.669 43.310, 173.487 43.989 C 176.882 46.807, 179.313 44.364, 189.750 27.648 C 195.387 18.619, 200 10.761, 200 10.187 C 200 8.740, 197.123 6, 195.603 6 C 194.913 6, 193.421 7.012, 192.288 8.250 M 108.200 10.200 C 104.702 13.698, 108.404 33.128, 116.085 51.583 C 119.304 59.316, 126.481 74.604, 127.414 75.713 C 127.513 75.831, 129.698 75.293, 132.270 74.519 C 140.470 72.051, 149.256 74.429, 156.455 81.066 C 162.254 86.411, 165.439 94.357, 164.620 101.439 C 163.891 107.746, 159.638 116.469, 155.968 119.182 L 153.120 121.287 157.015 127.023 C 169.019 144.698, 184.983 162.957, 192.946 168.118 C 201.188 173.461, 205.493 171.481, 205.281 162.445 C 204.622 134.289, 163.488 56.845, 131 22.593 C 119.878 10.866, 111.880 6.520, 108.200 10.200 M 97.892 19.042 C 94.146 24.769, 90.863 32.621, 84.532 51 C 76.057 75.602, 70.122 88.145, 61.641 99.367 L 54.941 108.234 71.619 137.367 C 80.792 153.390, 88.840 167.094, 89.504 167.820 C 90.503 168.912, 92.026 168.869, 98.314 167.570 C 112.591 164.621, 124.276 165.500, 157.795 172.043 C 166.207 173.685, 177.232 175.278, 182.295 175.583 L 191.500 176.139 188.500 173.906 C 186.850 172.678, 181.886 168.034, 177.468 163.586 C 147.322 133.234, 104.228 54.710, 100.290 22.954 C 99.509 16.661, 99.481 16.614, 97.892 19.042 M 213 53.865 C 199.043 62.038, 196.500 63.892, 196.500 65.892 C 196.500 67.192, 197.428 68.872, 198.562 69.625 C 200.439 70.872, 202.047 70.179, 216.562 61.875 C 225.328 56.860, 233.287 52.067, 234.250 51.224 C 237.460 48.411, 235.748 43.894, 231.550 44.101 C 230.422 44.157, 222.075 48.551, 213 53.865 M 222.903 94.903 C 208.870 95.519, 206 96.385, 206 100 C 206 103.891, 208.035 104.208, 228.101 103.444 C 245.144 102.795, 247.502 102.498, 249.216 100.784 C 250.943 99.057, 250.994 98.623, 249.707 96.677 C 248.031 94.144, 244.897 93.937, 222.903 94.903 M 34.500 120.293 C 26.140 125.162, 18.447 130.484, 15.404 133.504 C -1.290 150.073, 4.273 178.669, 26.096 188.463 C 31.700 190.977, 33.087 191.191, 41.436 190.826 L 50.614 190.424 65.085 182.235 C 73.044 177.730, 80.407 173.423, 81.446 172.663 C 83.235 171.355, 82.473 169.789, 67.198 143.373 C 58.322 128.023, 50.484 114.716, 49.780 113.802 C 48.624 112.301, 47.139 112.932, 34.500 120.293 M 69.500 187.582 C 63.450 191.135, 57.038 194.573, 55.250 195.222 C 51.195 196.694, 51.160 198.011, 54.895 208.741 C 59.300 221.395, 65.458 231.416, 74.500 240.642 C 81.628 247.915, 83.008 248.881, 87.155 249.502 C 96.399 250.885, 105.190 244.584, 106.536 235.609 C 107.425 229.680, 106.136 226.230, 100.207 218.674 C 91.740 207.882, 86.173 197.038, 83.049 185.250 C 82.430 182.912, 81.603 181.028, 81.211 181.061 C 80.820 181.095, 75.550 184.029, 69.500 187.582" stroke="none" fill="#8004fc" fill-rule="evenodd"/></svg>