<svg xmlns="http://www.w3.org/2000/svg" width="256" height="256" viewBox="0 0 256 256" version="1.1"><path d="M 42.453 1.326 C 33.863 4.636, 27.430 11.367, 25.061 19.523 C 24.211 22.449, 23.985 51.646, 24.203 130 C 24.492 233.573, 24.554 236.609, 26.467 240.467 C 28.980 245.535, 34.465 251.020, 39.533 253.533 C 43.368 255.435, 46.268 255.509, 126.873 255.767 L 210.246 256.034 215.440 253.656 C 221.316 250.966, 226.965 245.616, 229.670 240.179 C 231.402 236.697, 231.500 231.761, 231.500 148 L 231.500 59.500 229.323 55.433 C 228.126 53.196, 226.438 50.779, 225.573 50.061 C 224.256 48.968, 224 46.008, 224 31.878 C 224 16.204, 224.130 15, 225.826 15 C 228.591 15, 232 10.782, 232 7.360 C 232 5.505, 231.111 3.513, 229.686 2.174 L 227.371 0 136.436 0.076 C 69.388 0.132, 44.700 0.461, 42.453 1.326 M 48.333 16.097 C 38.143 19.048, 36.830 33.844, 46.357 38.365 C 49.456 39.835, 57.763 40, 128.901 40 L 208 40 208 27.500 L 208 15 129.750 15.090 C 85.585 15.141, 50.120 15.580, 48.333 16.097 M 141.971 80.442 C 129.219 85.141, 121.521 91.776, 113.627 104.871 C 106.891 116.043, 102.038 128.714, 100.074 140.258 L 98.413 150.016 80.325 168.258 C 58.270 190.501, 56.489 193.549, 59.542 203.828 C 61.407 210.110, 65.981 214.620, 72.428 216.535 C 76.897 217.862, 78.002 217.851, 82.893 216.429 C 87.926 214.966, 89.876 213.343, 107.430 196.021 L 126.500 177.202 134 176.076 C 144.210 174.542, 150.734 172.568, 160.488 168.062 C 185.496 156.508, 197.018 141.998, 196.989 122.093 C 196.971 109.337, 193.053 99.808, 184.321 91.283 C 175.359 82.533, 166.397 78.985, 153.500 79.081 C 149.100 79.114, 143.912 79.726, 141.971 80.442 M 145.994 93.934 C 136.096 96.945, 125.613 108.727, 119.593 123.605 C 117.194 129.532, 113.869 140, 114.384 140 C 114.536 140, 116.168 137.863, 118.010 135.250 C 128.462 120.425, 142.567 105.424, 153.500 97.507 C 155.700 95.914, 157.928 94.248, 158.450 93.805 C 159.640 92.797, 149.384 92.903, 145.994 93.934 M 167.001 105.595 C 161.216 108.902, 155.914 113.279, 148.803 120.619 C 142.095 127.543, 128.328 144.441, 125.567 149.139 L 123.634 152.428 126.897 150.362 C 141.221 141.293, 164.398 119.467, 169.908 109.860 C 174.437 101.961, 174.135 101.518, 167.001 105.595 M 178.594 122.427 C 172.366 131.471, 156.519 146.181, 138.154 159.965 L 135.500 161.957 141 160.444 C 157.045 156.030, 175.484 143.846, 180.254 134.507 C 182.065 130.959, 184.096 117, 182.801 117 C 182.543 117, 180.650 119.442, 178.594 122.427 M 88.167 180.906 C 74.638 193.923, 72.873 195.990, 73.167 198.478 C 73.571 201.900, 75.849 203.506, 79.133 202.682 C 80.502 202.338, 87.798 195.523, 95.733 187.177 L 109.890 172.286 106.695 169.219 L 103.500 166.153 88.167 180.906" stroke="none" fill="#7c04fc" fill-rule="evenodd"/></svg>