<svg xmlns="http://www.w3.org/2000/svg" width="256" height="256" viewBox="0 0 256 256" version="1.1"><path d="M 30.189 26.250 C 30.484 51.176, 30.616 52.757, 32.808 57.599 C 35.674 63.931, 42.006 70.246, 48.250 72.999 L 53 75.094 53 90.047 L 53 105 33.868 105 L 14.737 105 15.210 112.250 C 15.772 120.845, 18.414 126.688, 23.489 130.559 C 30.774 136.116, 26.489 135.909, 135.068 135.956 C 247.217 136.005, 242.391 136.287, 249.219 129.280 C 254.157 124.213, 256 119.389, 256 111.532 L 256 105 237 105 L 218 105 218 90.028 L 218 75.056 222.849 72.970 C 228.914 70.361, 235.205 64.022, 238.202 57.500 C 240.383 52.754, 240.516 51.167, 240.811 26.250 L 241.121 -0 210.500 -0 L 179.879 0 180.189 26.250 C 180.484 51.176, 180.616 52.757, 182.808 57.599 C 185.674 63.931, 192.006 70.246, 198.250 72.999 L 203 75.094 203 90.047 L 203 105 173 105 L 143 105 143 90.047 L 143 75.094 147.750 72.999 C 153.994 70.246, 160.326 63.931, 163.192 57.599 C 165.384 52.757, 165.516 51.176, 165.811 26.250 L 166.121 -0 135.500 -0 L 104.879 0 105.189 26.250 C 105.484 51.167, 105.617 52.754, 107.798 57.500 C 110.795 64.022, 117.086 70.361, 123.151 72.970 L 128 75.056 128 90.028 L 128 105 98 105 L 68 105 68 90.047 L 68 75.094 72.750 72.999 C 78.994 70.246, 85.326 63.931, 88.192 57.599 C 90.384 52.757, 90.516 51.176, 90.811 26.250 L 91.121 0 60.500 0 L 29.879 0 30.189 26.250 M 71.132 151.078 C 61.264 153.017, 58.549 155.197, 28.681 185.169 C 12.831 201.074, 0.006 214.471, 0.181 214.939 C 0.622 216.117, 45.326 255.957, 46.233 255.981 C 46.636 255.991, 51.136 252.146, 56.233 247.436 C 61.330 242.726, 67.300 237.912, 69.500 236.738 C 73.970 234.354, 73.256 234.369, 127.500 235.475 L 155.500 236.046 182.500 210.380 C 197.350 196.264, 213.755 180.743, 218.955 175.890 L 228.410 167.065 225.955 164.426 C 218.325 156.225, 208.909 153.235, 200.646 156.391 C 197.979 157.410, 187.562 165.242, 173.889 176.511 L 151.500 194.963 121.250 194.981 L 91 195 91 188 L 91 181 117 181 L 143 181 143 174.468 C 143 166.611, 141.157 161.787, 136.219 156.720 C 130.338 150.685, 126.391 149.983, 99.068 150.110 C 86.106 150.170, 73.534 150.605, 71.132 151.078" stroke="none" fill="#fffcfc" fill-rule="evenodd"/><path d="" stroke="none" fill="#fcfcfc" fill-rule="evenodd"/></svg>