<svg xmlns="http://www.w3.org/2000/svg" width="256" height="256" viewBox="0 0 256 256" version="1.1"><path d="M 105.767 1.944 C 96.920 5.402, 88.797 14.323, 86.444 23.166 C 85.663 26.100, 85.018 31.538, 85.012 35.250 L 85 42 47.500 42 L 10 42 10 53 L 10 64 15.912 64 L 21.824 64 22.406 67.750 C 22.726 69.813, 26.594 104.575, 31.001 145 C 35.407 185.425, 39.505 221.875, 40.106 226 C 42.006 239.036, 47.700 247.498, 58.500 253.337 C 62.484 255.492, 62.757 255.500, 128 255.500 C 193.243 255.500, 193.516 255.492, 197.500 253.337 C 208.300 247.498, 213.994 239.036, 215.894 226 C 216.495 221.875, 220.593 185.425, 224.999 145 C 229.406 104.575, 233.274 69.813, 233.594 67.750 L 234.176 64 240.088 64 L 246 64 246 53 L 246 42 208.500 42 L 171 42 170.988 35.250 C 170.966 22.721, 167.081 13.988, 158.210 6.523 C 151.709 1.053, 146.732 -0.005, 127.739 0.047 C 113.414 0.086, 109.700 0.406, 105.767 1.944 M 111.856 23.516 C 108.603 25.284, 107 29.619, 107 36.649 L 107 42 128 42 L 149 42 149 36.649 C 149 29.465, 147.382 25.249, 143.941 23.470 C 139.981 21.422, 115.647 21.457, 111.856 23.516 M 44.627 66.250 C 44.819 67.487, 48.847 103.825, 53.577 147 C 59.057 197.011, 62.708 226.629, 63.637 228.611 C 64.440 230.323, 66.221 232.235, 67.595 232.861 C 71.130 234.472, 184.870 234.472, 188.405 232.861 C 189.779 232.235, 191.560 230.323, 192.363 228.611 C 193.292 226.629, 196.943 197.011, 202.423 147 C 207.153 103.825, 211.181 67.487, 211.373 66.250 L 211.723 64 128 64 L 44.277 64 44.627 66.250 M 72.700 85.023 C 68.410 85.432, 64.642 86.025, 64.327 86.340 C 64.012 86.655, 66.149 115.736, 69.075 150.964 L 74.396 215.016 77.448 214.548 C 79.127 214.290, 83.987 213.798, 88.250 213.454 C 95.823 212.844, 96 212.768, 95.995 210.165 C 95.993 208.699, 93.745 180.725, 91 148 C 88.255 115.275, 86.007 87.487, 86.005 86.250 C 85.999 83.734, 86.112 83.745, 72.700 85.023 M 165.079 147.985 C 162.151 183.241, 159.922 212.247, 160.127 212.442 C 160.332 212.637, 165.338 213.191, 171.250 213.673 C 181.665 214.522, 182 214.486, 182.005 212.525 C 182.007 211.411, 184.255 183.725, 187 151 C 189.745 118.275, 191.993 90.293, 191.995 88.817 C 192.001 85.588, 191.364 85.370, 179.452 84.524 L 170.404 83.881 165.079 147.985 M 117 149.500 L 117 214 128 214 L 139 214 139 149.500 L 139 85 128 85 L 117 85 117 149.500" stroke="none" fill="#ff0404" fill-rule="evenodd"/><path d="" stroke="none" fill="#fc0404" fill-rule="evenodd"/></svg>