<svg xmlns="http://www.w3.org/2000/svg" width="256" height="256" viewBox="0 0 256 256" version="1.1"><path d="M 117.703 1.383 C 111.537 3.679, 108.570 6.046, 61.587 46.157 C 19.768 81.859, 16.467 84.912, 13.658 90.479 C 7.074 103.533, 10.792 120.072, 22.255 128.722 C 29.667 134.316, 33.259 135.508, 42.500 135.446 C 53.440 135.372, 56.894 133.406, 78.129 115.175 L 95.500 100.260 96 165.903 L 96.500 231.546 99.800 238.247 C 112.475 263.987, 148.654 261.257, 158.259 233.834 C 159.081 231.489, 159.586 211.194, 159.964 165.387 L 160.500 100.273 178.298 115.534 C 199.082 133.355, 202.948 135.514, 214 135.470 C 226.831 135.418, 236.745 129.325, 242.275 118.094 C 245.060 112.436, 245.476 110.576, 245.421 104.017 C 245.368 97.673, 244.873 95.498, 242.341 90.479 C 239.529 84.907, 236.202 81.835, 193.412 45.314 C 168.160 23.762, 145.256 4.888, 142.512 3.373 C 138.474 1.141, 135.999 0.555, 129.512 0.293 C 124.317 0.083, 120.165 0.467, 117.703 1.383" stroke="none" fill="#fc9c04" fill-rule="evenodd"/></svg>