<svg xmlns="http://www.w3.org/2000/svg" width="256" height="256" viewBox="0 0 256 256" version="1.1"><path d="M 113.112 9.581 C 104.241 11.966, 95.984 16.955, 88.470 24.470 C 76.970 35.970, 72 47.898, 72 64 C 72 80.102, 76.970 92.030, 88.470 103.530 C 99.970 115.030, 111.898 120, 128 120 C 144.102 120, 156.030 115.030, 167.530 103.530 C 179.030 92.030, 184 80.102, 184 64 C 184 47.898, 179.030 35.970, 167.530 24.470 C 159.852 16.791, 151.713 11.942, 142.458 9.531 C 135.130 7.622, 120.301 7.647, 113.112 9.581 M 72 137.886 C 63.124 140.356, 59.099 142.178, 52.303 146.803 C 40.965 154.520, 31.859 166.282, 27.197 179.234 C 24.650 186.309, 24.571 187.246, 24.220 214.861 C 23.860 243.112, 23.868 243.230, 26.104 245.611 L 28.349 248 128 248 L 227.651 248 229.896 245.611 C 232.132 243.230, 232.140 243.112, 231.780 214.861 C 231.428 187.206, 231.354 186.318, 228.789 179.192 C 222.177 160.818, 207.269 145.907, 188.766 139.164 L 181.500 136.516 130 136.297 C 82.968 136.096, 77.936 136.234, 72 137.886" stroke="none" fill="#7c04fc" fill-rule="evenodd"/></svg>