<svg xmlns="http://www.w3.org/2000/svg" width="256" height="256" viewBox="0 0 256 256" version="1.1"><path d="M 242.226 4.579 C 243.176 5.570, 244.168 6.166, 244.431 5.903 C 244.694 5.640, 243.917 4.829, 242.705 4.100 C 240.598 2.835, 240.577 2.857, 242.226 4.579 M 255.731 27.080 C 256.085 28.432, 256.538 28.886, 256.788 28.137 C 257.028 27.415, 256.750 26.350, 256.168 25.768 C 255.426 25.026, 255.296 25.417, 255.731 27.080 M 76.250 56.750 C 104.162 56.897, 149.837 56.897, 177.750 56.750 C 205.662 56.602, 182.825 56.481, 127 56.481 C 71.175 56.481, 48.337 56.602, 76.250 56.750 M 21.813 155.683 C 22.534 155.972, 23.397 155.936, 23.729 155.604 C 24.061 155.272, 23.471 155.036, 22.417 155.079 C 21.252 155.127, 21.015 155.364, 21.813 155.683 M 77.750 156.750 C 105.387 156.898, 150.612 156.898, 178.250 156.750 C 205.887 156.602, 183.275 156.481, 128 156.481 C 72.725 156.481, 50.112 156.602, 77.750 156.750" stroke="none" fill="#cc04fc" fill-rule="evenodd"/><path d="M 20.942 0.948 C 19.534 1.375, 17.284 2.333, 15.942 3.077 C 14.599 3.821, 13.257 4.445, 12.961 4.465 C 11.863 4.537, 6.219 10.886, 6.766 11.433 C 7.078 11.745, 6.583 12, 5.667 12 C 4.750 12, 4.069 12.338, 4.154 12.750 C 4.239 13.163, 3.474 15.300, 2.454 17.500 C 0.197 22.368, -0.044 34.249, 2.038 38 C 2.801 39.375, 3.318 40.873, 3.186 41.328 C 2.831 42.564, 14.965 54.139, 15.967 53.520 C 16.441 53.227, 16.999 53.497, 17.206 54.119 C 17.414 54.742, 19.590 55.404, 22.042 55.591 C 30.157 56.210, 234.455 56.012, 236.750 55.383 C 237.988 55.044, 239 54.294, 239 53.717 C 239 53.139, 239.291 52.957, 239.646 53.313 C 240.674 54.341, 247.881 48.556, 251.208 44.031 C 252.881 41.756, 254.250 38.794, 254.250 37.448 C 254.250 36.101, 254.595 35, 255.017 35 C 256.393 35, 257.027 30.201, 256.005 27.512 C 255.342 25.769, 255.341 25.093, 256.003 25.502 C 256.551 25.841, 257 25.165, 257 24 C 257 22.835, 256.550 22.160, 256 22.500 C 255.450 22.840, 255 22.372, 255 21.460 C 255 17.332, 248.878 8.335, 244.240 5.647 C 243.152 5.016, 240.740 3.600, 238.881 2.500 C 235.562 0.537, 233.554 0.497, 129.500 0.336 C 71.200 0.246, 22.349 0.521, 20.942 0.948 M 0.158 25 C 0.158 26.375, 0.385 26.938, 0.662 26.250 C 0.940 25.563, 0.940 24.438, 0.662 23.750 C 0.385 23.063, 0.158 23.625, 0.158 25 M 0.079 31.583 C 0.127 32.748, 0.364 32.985, 0.683 32.188 C 0.972 31.466, 0.936 30.603, 0.604 30.271 C 0.272 29.939, 0.036 30.529, 0.079 31.583 M 22.793 100.540 C 22.506 100.828, 21.326 101.245, 20.173 101.467 C 16.173 102.237, 11.324 105.084, 7.712 108.783 C 5.716 110.827, 4.044 112.829, 3.998 113.232 C 3.951 113.634, 3.180 115.659, 2.284 117.732 C 0.220 122.508, -0.728 134, 0.943 134 C 1.589 134, 1.837 134.454, 1.494 135.010 C 0.499 136.620, 4.946 144.541, 9.148 148.645 C 11.267 150.713, 13 152.094, 13 151.713 C 13 151.331, 13.915 151.803, 15.032 152.760 C 16.150 153.717, 17.163 154.410, 17.282 154.299 C 17.402 154.188, 19.300 154.517, 21.500 155.030 C 26.764 156.257, 230.426 156.321, 234.675 155.097 C 236.421 154.594, 238.108 154.442, 238.425 154.758 C 238.741 155.074, 239 154.733, 239 154 C 239 153.267, 239.291 152.957, 239.646 153.313 C 241.828 155.494, 255 140.518, 255 135.855 C 255 134.900, 255.450 133.840, 256 133.500 C 256.550 133.160, 256.993 130.321, 256.985 127.191 C 256.974 123.148, 256.689 121.934, 256 123 C 255.220 124.207, 255.028 124.050, 255.015 122.195 C 254.988 118.121, 251.154 111.289, 246.767 107.497 C 242.804 104.071, 240.629 102.849, 235.500 101.166 C 233.139 100.392, 23.559 99.775, 22.793 100.540 M 0.310 128.500 C 0.315 131.800, 0.502 133.029, 0.725 131.232 C 0.947 129.435, 0.943 126.735, 0.715 125.232 C 0.486 123.729, 0.304 125.200, 0.310 128.500 M 22.792 200.541 C 22.492 200.842, 21.118 201.292, 19.740 201.542 C 12.286 202.894, 4.751 210.433, 1.295 220 C -0.254 224.286, -0.417 234, 1.059 234 C 1.641 234, 1.830 234.467, 1.477 235.037 C 0.476 236.657, 4.738 244.129, 8.909 248.065 C 10.987 250.026, 14.670 252.585, 17.093 253.751 C 21.495 255.869, 21.622 255.871, 127.692 255.949 L 233.884 256.026 239.289 253.554 C 245.284 250.812, 251.239 244.866, 253.659 239.206 C 254.531 237.168, 255.639 234.719, 256.122 233.764 C 256.605 232.809, 256.968 229.434, 256.930 226.264 C 256.879 222.119, 256.618 221.062, 256 222.500 C 255.184 224.398, 255.137 224.384, 255.070 222.218 C 254.819 214.051, 245.746 204.101, 235.950 201.249 C 233.103 200.420, 23.609 199.724, 22.792 200.541 M 0.320 228 C 0.320 231.575, 0.502 233.037, 0.723 231.250 C 0.945 229.463, 0.945 226.537, 0.723 224.750 C 0.502 222.963, 0.320 224.425, 0.320 228" stroke="none" fill="#d404fc" fill-rule="evenodd"/></svg>