<svg xmlns="http://www.w3.org/2000/svg" width="256" height="256" viewBox="0 0 256 256" version="1.1"><path d="M 96 0.615 C 83.418 1.480, 60.009 4.201, 53.312 5.578 C 35.358 9.268, 19.290 21.405, 10.690 37.771 C 6.470 45.802, 4.814 51.633, 2.332 67.208 C -0.251 83.414, -0.263 130.535, 2.311 147 C 6.142 171.498, 9.158 178.159, 22.489 191.557 C 36.376 205.516, 46.351 209.320, 76.334 212.094 L 89.522 213.314 98.298 226.502 C 114.525 250.889, 119.671 256, 128 256 C 136.329 256, 141.475 250.889, 157.702 226.502 L 166.478 213.314 179.666 212.094 C 209.627 209.322, 219.586 205.526, 233.580 191.541 C 247.437 177.693, 251.507 167.702, 254.151 141.035 C 254.725 135.241, 255.601 129.719, 256.098 128.764 C 257.375 126.306, 257.281 83.709, 256 84.500 C 255.396 84.873, 255 83.508, 255 81.052 C 255 75.783, 252.372 58.148, 250.466 50.624 C 247.193 37.707, 238.660 25.429, 226.699 16.428 C 215.470 7.977, 207.251 5.456, 181 2.414 C 168.139 0.923, 109.556 -0.316, 96 0.615 M 118.259 44.008 C 109.395 46.330, 103.281 49.814, 96.940 56.156 C 91.185 61.911, 85.745 72.627, 85.820 78.063 C 85.934 86.313, 91.782 91.990, 100.173 91.996 C 106.128 92.001, 110.002 88.920, 114 81 C 117.680 73.711, 121.599 70.433, 128.297 69.042 C 141.774 66.244, 151.879 73.611, 148.978 84.118 C 147.748 88.574, 144.435 91.708, 132.838 99.392 C 125.779 104.069, 122.535 106.980, 119.545 111.318 C 115.756 116.816, 115.573 117.448, 115.183 126.362 C 114.712 137.135, 116.044 140.937, 121.231 143.619 C 127.626 146.927, 136.556 144.764, 139.343 139.233 C 140.101 137.730, 140.994 134.081, 141.328 131.124 C 141.662 128.166, 142.617 124.707, 143.450 123.436 C 144.283 122.165, 149.703 117.899, 155.494 113.957 C 171.386 103.140, 176.832 95.550, 177.760 82.925 C 179.113 64.524, 166.642 48.740, 146.500 43.359 C 139.446 41.475, 126.817 41.765, 118.259 44.008 M 0.428 107 C 0.428 119.375, 0.571 124.438, 0.747 118.250 C 0.922 112.063, 0.922 101.938, 0.747 95.750 C 0.571 89.563, 0.428 94.625, 0.428 107 M 122.090 159.929 C 115.513 161.044, 114 163.501, 114 173.064 C 114 185.817, 116.046 188, 128 188 C 139.988 188, 142 185.831, 142 172.907 C 142 165.749, 141.742 164.651, 139.545 162.455 C 138.195 161.105, 136.002 160, 134.670 160 C 133.339 160, 130.956 159.816, 129.375 159.591 C 127.794 159.365, 124.515 159.518, 122.090 159.929" stroke="none" fill="#7c04fc" fill-rule="evenodd"/></svg>