<svg xmlns="http://www.w3.org/2000/svg" width="256" height="256" viewBox="0 0 256 256" version="1.1"><path d="M 92 0.642 C 81.261 2.720, 71.768 5.519, 64.755 8.677 C 34.054 22.501, 10.855 49.836, 2.736 81.755 C 0.838 89.215, 0.519 93.072, 0.569 108 C 0.620 123.593, 0.909 126.548, 3.222 135.119 C 11.282 164.980, 31.238 189.691, 58.679 203.786 C 86.716 218.188, 117.626 219.653, 147.814 208.012 C 156.079 204.824, 167.179 198.572, 172.979 193.838 L 176.458 190.998 209.014 223.499 L 241.570 256 245.884 256 C 251.782 256, 256 251.696, 256 245.679 C 256 241.619, 255.612 241.182, 223.499 209.014 L 190.998 176.458 193.838 172.979 C 198.572 167.179, 204.824 156.079, 208.012 147.814 C 219.653 117.626, 218.188 86.716, 203.786 58.679 C 189.673 31.203, 164.749 11.096, 135.119 3.281 C 127.204 1.194, 122.754 0.693, 110 0.452 C 101.475 0.290, 93.375 0.376, 92 0.642 M 98 21.016 C 61.243 25.452, 31.534 51.845, 22.836 87.791 C 21.261 94.297, 20.745 99.535, 20.795 108.500 C 20.878 123.562, 23.118 132.836, 29.971 146.500 C 41.091 168.674, 59.685 184.337, 83.537 191.624 C 91.533 194.066, 94.118 194.369, 107.500 194.431 C 124.767 194.510, 132.371 192.857, 145.785 186.103 C 164.035 176.915, 176.915 164.035, 186.103 145.785 C 192.857 132.371, 194.510 124.767, 194.431 107.500 C 194.369 94.118, 194.066 91.533, 191.624 83.537 C 184.337 59.685, 168.674 41.091, 146.500 29.971 C 131.017 22.206, 114.070 19.077, 98 21.016" stroke="none" fill="#bc7404" fill-rule="evenodd"/></svg>