<svg xmlns="http://www.w3.org/2000/svg" width="256" height="256" viewBox="0 0 256 256" version="1.1"><path d="M 208.822 2.333 C 202.206 5.112, 197.951 8.357, 189.016 17.437 L 182.532 24.026 207.307 48.763 L 232.082 73.500 241.100 64.242 C 253.026 51.999, 255.500 46.889, 255.500 34.500 C 255.500 26.855, 255.101 24.650, 252.852 19.852 C 247.179 7.751, 236.354 0.758, 222.500 0.245 C 215.883 -0.001, 213.518 0.361, 208.822 2.333 M 103.040 103.460 C 65.390 141.113, 34.792 172.108, 35.043 172.339 C 35.294 172.570, 37.975 173.992, 41 175.499 C 44.025 177.006, 49.200 180.148, 52.500 182.481 L 58.500 186.724 125.500 120.368 L 192.500 54.012 182.500 44.552 C 177 39.349, 172.274 35.071, 171.997 35.046 C 171.721 35.021, 140.690 65.807, 103.040 103.460 M 135.304 130.775 L 69.260 197.551 73.234 203.025 C 75.420 206.036, 78.608 211.313, 80.319 214.750 C 82.029 218.188, 83.671 221, 83.967 221 C 84.263 221, 115.288 190.215, 152.911 152.589 L 221.316 84.178 211.984 74.089 C 206.851 68.540, 202.358 64, 202 64 C 201.641 64, 171.628 94.049, 135.304 130.775 M 23.548 187.250 C 17.421 201.998, 15.097 208.532, 15.883 208.794 C 19.286 209.929, 30.014 217.411, 34.332 221.662 C 38.537 225.801, 46.018 236.555, 47.238 240.213 C 47.503 241.010, 69.725 232.571, 71.285 231.080 C 72.397 230.017, 68.783 222.044, 63.629 214.191 C 55.961 202.508, 42.673 191.218, 30.394 185.955 C 27.886 184.880, 25.624 184, 25.366 184 C 25.109 184, 24.290 185.463, 23.548 187.250 M 4.722 234.253 C 2.094 240.989, -0.044 247.659, -0.028 249.076 C 0.008 252.372, 3.852 256, 7.309 256 C 9.335 256, 31.994 247.826, 33.820 246.437 C 34.768 245.715, 29.093 236.922, 24.642 232.215 C 20.659 228.004, 11.900 221.983, 9.783 222.003 C 9.627 222.004, 7.350 227.516, 4.722 234.253" stroke="none" fill="#9c04fc" fill-rule="evenodd"/></svg>