<?xml version="1.0" encoding="UTF-8"?>
<svg version="1.1" xmlns="http://www.w3.org/2000/svg" width="256" height="256">
<path d="M0 0 C0.93248566 -0.0065712 1.86497131 -0.0131424 2.82571411 -0.01991272 C5.90806164 -0.03959953 8.99036038 -0.05130206 12.07275391 -0.0612793 C13.65957914 -0.06739259 13.65957914 -0.06739259 15.27846146 -0.07362938 C20.88485772 -0.0944769 26.49122964 -0.10878072 32.09765625 -0.11816406 C37.85480246 -0.12918688 43.61155775 -0.16354293 49.36856651 -0.20333576 C53.82305559 -0.22964205 58.2774538 -0.23786859 62.7320137 -0.24144554 C64.85203293 -0.24628042 66.97204897 -0.25780448 69.09199142 -0.27648354 C91.2623796 -0.45958703 109.11426648 3.11598599 125.61181641 19.0480957 C135.40318993 29.56070879 141.71703914 42.84048808 141.85131836 57.26489258 C141.87057121 59.07201721 141.87057121 59.07201721 141.89021301 60.91564941 C141.89759995 62.20845825 141.90498688 63.50126709 141.91259766 64.83325195 C141.91667318 65.49541214 141.92074871 66.15757233 141.92494774 66.83979797 C141.94573807 70.34037964 141.96007364 73.84092286 141.96948242 77.34155273 C141.9805719 80.94970123 142.01501989 84.5572373 142.05465412 88.16516876 C142.08081898 90.94819265 142.08917374 93.73106987 142.0927639 96.51420593 C142.09998165 98.48901152 142.12641059 100.46371678 142.15315247 102.43835449 C142.14876411 104.24547913 142.14876411 104.24547913 142.14428711 106.08911133 C142.15015335 107.14658569 142.15601959 108.20406006 142.1620636 109.2935791 C141.53921044 112.97571004 140.32276492 114.57335299 137.67431641 117.17700195 C133.52020261 119.3323611 129.63485196 119.46226304 125.05213928 119.43769836 C123.91277008 119.44343668 123.91277008 119.44343668 122.75038332 119.44929093 C120.20941332 119.45959595 117.66867035 119.45563357 115.12768555 119.45166016 C113.30419201 119.456008 111.4807003 119.46119139 109.6572113 119.46714783 C104.7068286 119.48054092 99.75652222 119.48111617 94.80612493 119.47858453 C90.67333245 119.47751508 86.54055544 119.48239749 82.40776628 119.48718995 C72.65814428 119.4982861 62.90856081 119.49872185 53.15893555 119.49267578 C43.10066078 119.48663423 33.04252583 119.49895138 22.98427492 119.52024585 C14.34804933 119.53785749 5.71186826 119.54386392 -2.92437464 119.54060811 C-8.0821844 119.53879449 -13.23989441 119.54143932 -18.39768791 119.55532265 C-23.24781109 119.5678893 -28.09771613 119.56596787 -32.94783592 119.55291176 C-34.72719649 119.55054394 -36.50657235 119.55328802 -38.28591537 119.56153488 C-40.71637132 119.57198672 -43.14609324 119.56391461 -45.57652283 119.55122375 C-46.27935156 119.55859804 -46.9821803 119.56597232 -47.70630687 119.57357007 C-53.14251058 119.51392061 -57.26395544 118.20454645 -61.17642212 114.35694885 C-62.66597393 111.53153102 -62.70655613 109.48842011 -62.71386719 106.29785156 C-62.72332367 105.11239243 -62.73278015 103.92693329 -62.74252319 102.70555115 C-62.73341415 100.78682945 -62.73341415 100.78682945 -62.72412109 98.8293457 C-62.72614451 97.49377789 -62.72905818 96.15821115 -62.7328186 94.82264709 C-62.7372401 92.02081808 -62.73082408 89.21927607 -62.71679688 86.41748047 C-62.69982059 82.85589554 -62.70947254 79.2949947 -62.72751427 75.73343563 C-62.73845677 72.97157324 -62.73485647 70.20986758 -62.72713089 67.44799995 C-62.7241986 65.50568824 -62.73319897 63.56337004 -62.74252319 61.62107849 C-62.60241139 43.72981527 -55.94950253 28.95075381 -43.38818359 16.2121582 C-31.18507448 4.96856775 -16.39731349 0.05039926 0 0 Z " fill="#FFFFFF" transform="translate(88.32568359375,134.822998046875)"/>
<path d="M0 0 C11.45170376 10.46484239 18.47433253 24.47697359 19.51953125 40.04296875 C20.13354005 56.46180022 15.6397522 70.83782706 4.80078125 83.36328125 C-6.73652062 95.40814631 -20.18108252 102.83527891 -37.02050781 103.39282227 C-54.80802743 103.61690916 -68.44049796 98.61835354 -81.5078125 86.328125 C-93.72571413 73.9866021 -99.24392473 59.45253357 -99.19311523 42.23217773 C-98.7363926 26.45028427 -92.23926118 12.75410412 -81.46484375 1.375 C-57.9999737 -19.83363254 -24.25076785 -20.53773163 0 0 Z " fill="#FFFFFF" transform="translate(167.82421875,17.01171875)"/>
</svg>
