<svg xmlns="http://www.w3.org/2000/svg" width="256" height="256" viewBox="0 0 256 256" version="1.1"><path d="M 37.366 18.067 C 26.241 22.370, 17.995 34.602, 18.005 46.788 C 18.015 59.543, 27.075 214.564, 28.014 218.053 C 30.394 226.891, 40.149 236.617, 49.033 239.009 C 51.588 239.697, 79.013 239.955, 130.196 239.774 L 207.500 239.500 211.601 237.306 C 218.345 233.697, 224.488 226.985, 226.868 220.623 C 228.824 215.395, 229.404 207.615, 233.682 129.204 C 238.193 46.529, 238.299 43.300, 236.676 37.836 C 234.475 30.425, 228.703 23.252, 221.922 19.500 L 216.500 16.500 129.500 16.291 C 44.835 16.087, 42.362 16.135, 37.366 18.067 M 41.686 38.415 C 38.368 41.490, 37.435 45.222, 39.025 49.059 C 41.829 55.829, 49.667 57.179, 55.030 51.816 C 57.845 49.001, 58.151 48.162, 57.669 44.568 C 56.599 36.590, 47.454 33.070, 41.686 38.415 M 202.299 37.503 C 198.900 39.884, 197.603 45.114, 199.366 49.334 C 201.071 53.414, 203.547 55, 208.212 55 C 214.935 55, 219.158 49.037, 217.020 42.562 C 215.562 38.143, 212.617 36, 208 36 C 206.045 36, 203.479 36.676, 202.299 37.503 M 118.760 38.047 C 96.577 40.633, 75.654 54.387, 63.699 74.240 C 57.114 85.176, 51.214 109.491, 54.037 114.061 C 54.795 115.288, 65.619 115.540, 127.373 115.769 C 210.951 116.080, 203.557 117.030, 202.473 106.114 C 200.539 86.633, 192.020 69.407, 178.117 56.858 C 162.180 42.474, 140.290 35.537, 118.760 38.047 M 109 47.364 C 99.955 50.086, 95.420 52.375, 87.463 58.236 C 73.455 68.553, 63.267 85.680, 61.418 102.018 L 60.742 108 89.178 108 L 117.615 108 119.413 103.926 L 121.210 99.851 117.552 86.784 C 115.541 79.597, 114.129 73.105, 114.416 72.358 C 115.014 70.799, 119.581 70.514, 120.487 71.979 C 120.820 72.517, 122.618 78.414, 124.483 85.083 C 126.348 91.751, 128.015 97.339, 128.187 97.499 C 128.359 97.659, 130.143 98.471, 132.152 99.303 C 134.826 100.411, 136.152 101.778, 137.103 104.408 L 138.402 108 166.839 108 L 195.275 108 194.617 102.250 C 192.294 81.962, 177.447 61.328, 158.154 51.572 C 144.628 44.733, 123.698 42.941, 109 47.364 M 110.724 51.134 C 108.619 52.312, 108.533 54.947, 110.449 59.532 C 111.392 61.790, 112.571 63, 113.827 63 C 116.876 63, 117.763 60.969, 116.774 56.254 C 115.795 51.584, 113.457 49.605, 110.724 51.134 M 140.025 54.426 C 138.427 59.268, 139.017 62.431, 141.588 62.798 C 144.506 63.215, 146.071 60.903, 146.302 55.835 C 146.485 51.829, 146.299 51.477, 143.846 51.193 C 141.588 50.931, 141.019 51.413, 140.025 54.426 M 83.200 67.200 C 81.403 68.997, 81.725 70.519, 84.634 73.977 C 86.568 76.275, 87.963 77.026, 89.884 76.804 C 93.758 76.354, 93.880 72.726, 90.147 68.993 C 86.928 65.774, 85.098 65.302, 83.200 67.200 M 166.032 68.970 C 163.886 70.975, 162.958 72.681, 163.177 74.220 C 163.667 77.676, 167.593 77.764, 171.108 74.397 C 174.197 71.437, 174.738 69.138, 172.800 67.200 C 170.956 65.356, 169.491 65.739, 166.032 68.970 M 67.426 94.332 C 66.188 97.559, 67.497 99.411, 71.922 100.692 C 76.776 102.098, 79 101.225, 79 97.913 C 79 95.743, 76.868 94.441, 71.742 93.479 C 68.854 92.938, 67.888 93.128, 67.426 94.332 M 181 94.306 C 178.641 95.111, 177.399 96.211, 177.189 97.682 C 176.740 100.838, 179.627 101.986, 184.500 100.590 C 187.522 99.724, 188.583 98.867, 188.837 97.085 C 189.160 94.828, 187.627 92.984, 185.500 93.072 C 184.950 93.094, 182.925 93.650, 181 94.306 M 52.500 202.386 C 46.184 205.140, 44.887 213.040, 49.923 218.077 C 56.239 224.393, 66.475 220.006, 66.222 211.092 C 66.098 206.749, 64.280 204.015, 60.452 202.415 C 56.404 200.724, 56.313 200.724, 52.500 202.386 M 195.329 202.458 C 191.695 204.039, 189.899 206.831, 189.778 211.092 C 189.525 220.006, 199.761 224.393, 206.077 218.077 C 211.201 212.953, 209.440 204.395, 202.785 202.075 C 199.036 200.768, 199.237 200.758, 195.329 202.458" stroke="none" fill="#fffcfc" fill-rule="evenodd"/><path d="" stroke="none" fill="#fcfcfc" fill-rule="evenodd"/></svg>