<svg xmlns="http://www.w3.org/2000/svg" width="256" height="256" viewBox="0 0 256 256" version="1.1"><path d="M 106.183 13.829 C 104.397 15.498, 102.930 18.061, 102.607 20.079 C 101.753 25.417, 101.106 32.142, 101.051 36.271 C 101.008 39.421, 100.546 40.230, 98.250 41.179 C 96.737 41.804, 93.195 43.318, 90.379 44.544 L 85.258 46.771 78.379 40.780 C 74.595 37.485, 70.498 34.117, 69.273 33.295 C 66.502 31.435, 61.068 31.367, 57.742 33.150 C 54.053 35.127, 32.433 58.109, 31.754 60.774 C 30.716 64.847, 32.913 69.358, 39.849 77.398 L 46.663 85.297 43.359 92.898 L 40.055 100.500 29.278 101.564 C 11.166 103.351, 11 103.592, 11 128.060 C 11 144.639, 11.173 146.434, 13.017 149.024 C 14.126 150.581, 16.489 152.304, 18.267 152.851 C 21.514 153.851, 30.672 154.897, 36.771 154.964 C 39.381 154.993, 40.273 155.556, 41.179 157.750 C 41.804 159.262, 43.331 162.833, 44.573 165.685 L 46.830 170.870 39.860 178.884 C 32.105 187.800, 30.710 190.962, 32.381 195.848 C 33.753 199.861, 55.190 221.681, 59.632 223.585 C 64.342 225.605, 68.042 224.033, 77.080 216.172 L 85.057 209.233 92.779 212.589 L 100.500 215.945 101.564 226.722 C 103.351 244.827, 103.601 245, 128 245 C 152.399 245, 152.649 244.827, 154.436 226.722 L 155.500 215.945 163.221 212.589 L 170.943 209.233 178.920 216.172 C 187.958 224.033, 191.658 225.605, 196.368 223.585 C 200.810 221.681, 222.247 199.861, 223.619 195.848 C 225.290 190.962, 223.895 187.800, 216.140 178.884 L 209.170 170.870 211.427 165.685 C 212.669 162.833, 214.196 159.263, 214.821 157.750 C 215.727 155.556, 216.619 154.993, 219.229 154.964 C 225.328 154.897, 234.486 153.851, 237.733 152.851 C 239.511 152.304, 241.874 150.581, 242.983 149.024 C 244.827 146.434, 245 144.639, 245 128.060 C 245 103.592, 244.834 103.351, 226.722 101.564 L 215.945 100.500 212.616 92.840 L 209.286 85.179 216.132 77.340 C 223.083 69.378, 225.290 64.872, 224.246 60.774 C 223.567 58.109, 201.947 35.127, 198.258 33.150 C 194.932 31.367, 189.498 31.435, 186.727 33.295 C 185.502 34.117, 181.405 37.485, 177.621 40.780 L 170.742 46.771 165.621 44.544 C 162.805 43.318, 159.262 41.804, 157.750 41.179 C 155.556 40.273, 154.993 39.381, 154.964 36.771 C 154.897 30.672, 153.851 21.514, 152.851 18.267 C 152.304 16.489, 150.581 14.126, 149.024 13.017 C 146.429 11.169, 144.640 11, 127.701 11 L 109.212 11 106.183 13.829 M 116.304 93.912 C 93.683 101.624, 84.666 130.540, 99.044 149.269 C 116.953 172.599, 153.044 166.900, 162.148 139.305 C 171.376 111.331, 144.184 84.407, 116.304 93.912" stroke="none" fill="#7c04fc" fill-rule="evenodd"/></svg>