<svg xmlns="http://www.w3.org/2000/svg" width="512" height="512" viewBox="0 0 512 512" version="1.1"><path d="M 178.113 1.481 C 167.903 3.798, 162.059 5.929, 153.257 10.548 C 129.864 22.821, 114.042 42.341, 105.822 69.067 L 103.536 76.500 103.240 190.823 L 102.943 305.147 98.012 311.580 C 65.516 353.977, 63.700 412.164, 93.473 457 C 112.022 484.934, 142.559 504.748, 176.039 510.574 C 188.992 512.827, 213.895 512.073, 226 509.061 C 263.091 499.831, 292.259 476.508, 309.242 442.500 C 316.889 427.188, 320.951 410.933, 321.739 392.490 C 323.009 362.743, 314.685 335.866, 296.942 312.424 L 292 305.894 291.994 197.697 C 291.988 80.534, 291.915 78.748, 286.552 63.096 C 281.846 49.365, 275.184 38.788, 264.231 27.662 C 252.960 16.212, 237.014 6.870, 221.169 2.432 C 213.039 0.156, 186.535 -0.430, 178.113 1.481 M 337.500 29.556 C 332.832 32.009, 330.194 34.925, 328.406 39.608 C 325.650 46.824, 328.102 54.688, 334.671 59.698 L 338.344 62.500 383.500 62.500 L 428.656 62.500 432.437 59.616 C 436.604 56.437, 439.956 50.145, 439.956 45.500 C 439.956 40.856, 436.605 34.563, 432.438 31.384 L 428.658 28.500 384.579 28.240 C 346.042 28.012, 340.123 28.178, 337.500 29.556 M 182.202 36.022 C 171.326 38.871, 163.510 43.433, 154.885 51.966 C 147.342 59.428, 142.177 67.674, 138.892 77.500 C 137.818 80.712, 137.451 104.748, 137.027 199.500 C 136.587 298.032, 136.269 317.906, 135.101 319.962 C 134.332 321.316, 130.705 326.129, 127.041 330.659 C 119.397 340.108, 113.123 352.078, 109.804 363.545 C 107.823 370.389, 107.504 373.734, 107.520 387.500 C 107.542 406.669, 108.646 411.576, 116.525 427.500 C 128.223 451.144, 149.283 468.320, 175 475.190 C 186.682 478.311, 207.769 478.318, 219.198 475.205 C 252.617 466.103, 278.713 438.753, 285.429 405.792 C 287.439 395.928, 287.441 379.084, 285.433 369.208 C 282.666 355.602, 275.033 340.150, 265.657 329.171 C 262.993 326.052, 260.068 322.395, 259.157 321.045 C 257.645 318.804, 257.456 308.265, 257 200.545 L 256.500 82.500 253.830 75.193 C 242.819 45.055, 212.018 28.211, 182.202 36.022 M 336.020 108.752 C 324.332 114.624, 324.520 132.303, 336.338 138.770 C 339.149 140.308, 343.780 140.536, 378 140.828 C 421.181 141.195, 427.446 140.830, 432.215 137.673 C 437.055 134.467, 440.398 127.138, 439.561 121.561 C 438.715 115.916, 435.404 110.974, 430.980 108.752 C 427.825 107.166, 423.396 107.003, 383.500 107.003 C 343.604 107.003, 339.175 107.166, 336.020 108.752 M 336.970 186.250 C 326.545 191.517, 324.103 204.026, 331.730 213.091 C 336.683 218.978, 336.878 219, 383.500 219 C 429.126 219, 430.062 218.906, 434.702 213.865 C 442.884 204.977, 440.621 191.600, 430.030 186.250 C 425.622 184.023, 425.148 184, 383.500 184 C 341.852 184, 341.378 184.023, 336.970 186.250 M 187.909 230.493 C 182.290 232.298, 174.679 238.818, 171.708 244.372 C 169.544 248.417, 169.494 249.356, 169.210 291.020 L 168.920 333.540 164.546 336.308 C 162.140 337.830, 157.258 342.164, 153.697 345.938 C 142.951 357.330, 138 370.123, 138 386.500 C 138 397.337, 139.824 404.970, 144.575 414.010 C 151.796 427.752, 162.778 437.075, 177.956 442.349 C 194.709 448.170, 214.900 445.688, 229.679 435.991 C 241.180 428.444, 249.631 417.216, 254.131 403.500 C 257.050 394.606, 257.258 379.577, 254.589 370.552 C 250.658 357.266, 243.259 346.370, 232.858 338.554 L 226.500 333.776 226 292.138 C 225.522 252.372, 225.405 250.294, 223.377 245.911 C 220.651 240.016, 214.895 234.283, 209.151 231.742 C 203.287 229.149, 193.827 228.592, 187.909 230.493 M 335.984 264.852 C 324.302 271.060, 324.506 288.296, 336.338 294.770 C 339.154 296.311, 343.821 296.535, 379 296.819 C 400.725 296.995, 420.840 296.853, 423.700 296.503 C 430.501 295.673, 434.951 292.604, 437.862 286.737 C 439.750 282.931, 440.091 281.091, 439.561 277.561 C 438.730 272.018, 435.522 267.246, 431.016 264.852 C 427.776 263.130, 424.434 263, 383.500 263 C 342.566 263, 339.224 263.130, 335.984 264.852" stroke="none" fill="#fffcfc" fill-rule="evenodd"/><path d="" stroke="none" fill="#fcfcfc" fill-rule="evenodd"/></svg>