<svg xmlns="http://www.w3.org/2000/svg" width="256" height="256" viewBox="0 0 256 256" version="1.1"><path d="M 124.500 29.981 C 123.400 30.451, 112.037 41.338, 99.250 54.176 C 75.276 78.243, 73.233 80.964, 74.668 86.915 C 76.326 93.787, 82.685 97.844, 89.726 96.524 C 92.550 95.994, 95.865 93.360, 105.161 84.260 L 117 72.671 117 120.187 L 117 167.704 119.280 171.088 C 122.084 175.248, 125.313 176.966, 130.368 176.985 C 133.537 176.997, 134.936 176.299, 138.118 173.118 L 142 169.235 142 120.419 L 142 71.602 154.259 83.722 C 167.311 96.625, 169.710 98.003, 175.900 96.148 C 181.918 94.345, 184.500 90.819, 184.500 84.403 L 184.500 78.967 159.459 53.984 C 135.028 29.608, 134.322 29.002, 130.459 29.063 C 128.282 29.098, 125.600 29.511, 124.500 29.981 M 28.256 147.029 C 27.022 147.525, 25.095 149.409, 23.972 151.215 C 22.052 154.307, 21.949 155.820, 22.216 177 C 22.499 199.398, 22.513 199.528, 25.374 205.722 C 28.539 212.573, 36.052 220.456, 42.605 223.799 C 44.782 224.909, 49.219 226.309, 52.465 226.909 C 60.778 228.446, 199.942 228.416, 207.201 226.876 C 223.301 223.459, 234.674 211.219, 237.057 194.742 C 238.288 186.234, 238.226 159.353, 236.965 154.814 C 233.671 142.955, 216.329 142.955, 213.035 154.814 C 212.472 156.841, 212.009 166.285, 212.006 175.800 C 211.999 194.687, 211.440 197.118, 206.301 200.602 C 203.613 202.423, 200.549 202.500, 130.500 202.500 C 51.778 202.500, 53.504 202.613, 49.500 197.202 C 47.694 194.763, 47.451 192.475, 47 173.671 L 46.500 152.842 42.765 149.421 C 39.692 146.607, 38.273 146.011, 34.765 146.063 C 32.419 146.098, 29.490 146.533, 28.256 147.029" stroke="none" fill="#ff9c04" fill-rule="evenodd"/><path d="" stroke="none" fill="#fc9c04" fill-rule="evenodd"/></svg>